<svg width="49" height="68" viewBox="0 0 49 68" fill="none" xmlns="http://www.w3.org/2000/svg">
<path d="M24.4908 0H48.9816C48.9816 0 48.9816 41.2121 48.9816 45.2121C48.9816 49.2121 48.6359 55.4545 43.6801 58.4242C38.7243 61.3939 24.4908 68 24.4908 68C24.4908 68 10.2573 61.3939 5.30154 58.4242C0.345752 55.4545 0 49.2121 0 45.2121C0 41.2121 0 0 0 0H24.4908Z" fill="#1F1B20"/>
<path d="M2.24805 45.212C2.24805 49.212 2.70905 54.1211 6.4547 56.3635C10.5461 58.7878 21.3797 63.8787 24.5491 65.3938C27.7185 63.8787 38.5521 58.7878 42.6435 56.3635C46.3891 54.1211 46.8501 49.212 46.8501 45.212V2.36353H36.1318V3.75746H45.4671V45.212C45.4671 48.8484 45.0637 53.2726 41.952 55.1514C38.1487 57.4544 28.2371 62.1211 24.5491 63.8787C20.8034 62.1211 10.9495 57.4544 7.14621 55.1514C4.03444 53.2726 3.63106 48.8484 3.63106 45.212V3.75746H24.6067H31.0031V2.36353H24.4915H2.24805V45.212Z" fill="#E5E5E5"/>
<path fill-rule="evenodd" clip-rule="evenodd" d="M3.57227 53.0303H9.56531V57.2727L3.57227 53.1515V53.0303Z" fill="#FEFEFE"/>
<path d="M21.5516 53.0303H15.5586V59.3333H21.5516V53.0303Z" fill="#FEFEFE"/>
<path fill-rule="evenodd" clip-rule="evenodd" d="M21.4941 59.3334H27.4872V63.2728L24.7212 64.5455L21.4941 63.394V59.3334Z" fill="#FEFEFE"/>
<path d="M15.5595 46.7273H9.56641V53.0303H15.5595V46.7273Z" fill="#FEFEFE"/>
<path d="M27.4872 46.7273H21.4941V53.0303H27.4872V46.7273Z" fill="#FEFEFE"/>
<path d="M33.4794 53.0303H27.4863V59.3333H33.4794V53.0303Z" fill="#FEFEFE"/>
<path d="M39.4735 46.7273H33.4805V53.0303H39.4735V46.7273Z" fill="#FEFEFE"/>
<path fill-rule="evenodd" clip-rule="evenodd" d="M39.4727 53.0303H45.4657L42.4692 56.1818L39.4727 57.3333V53.0303Z" fill="#FEFEFE"/>
<path fill-rule="evenodd" clip-rule="evenodd" d="M24.49 43.5757C34.7473 43.5757 43.103 43.7575 43.103 43.9999C43.103 44.2424 34.7473 44.4242 24.49 44.4242C14.2326 44.4242 5.87695 44.2424 5.87695 43.9999C5.87695 43.6969 14.2326 43.5757 24.49 43.5757Z" fill="#FEFEFE"/>
<path fill-rule="evenodd" clip-rule="evenodd" d="M9.73846 33.1516H11.1215C10.6605 33.1516 10.0842 33.2122 9.62321 33.2122C9.62321 33.2122 9.62321 33.1516 9.73846 33.1516ZM9.56558 34.4243H10.3147C9.79609 34.4243 10.1995 34.4243 9.56558 34.4243C9.50796 34.4849 9.50796 34.4243 9.56558 34.4243ZM8.7012 37.5758H10.43C10.0266 37.5758 9.50796 37.5758 9.04695 37.6364C8.87408 37.6364 8.81645 37.6364 8.7012 37.5758C8.64358 37.6364 8.64358 37.5758 8.7012 37.5758ZM10.0266 35.0304C10.0266 36.3031 9.73846 36.7273 9.21983 37.2728C9.45033 37.2728 9.62321 37.2728 9.79609 37.2728C10.0266 36.788 10.1418 35.9395 10.0266 35.0304ZM9.68083 34.6061H10.4876C10.2571 34.6061 10.0266 34.6061 9.73846 34.6667C9.62321 34.6667 9.62321 34.6061 9.68083 34.6061ZM8.64358 37.4546H10.9486C10.3147 37.4546 9.33508 37.4546 8.64358 37.4546C8.52833 37.5152 8.58595 37.4546 8.64358 37.4546ZM9.73846 31.3334C9.50796 31.8183 9.56558 32.2425 9.79609 32.6061C9.56558 32.4243 9.45033 32.1213 9.45033 31.7577C9.45033 31.5758 9.50796 31.394 9.56558 31.2122L9.73846 31.3334ZM10.0266 30.9698C9.96896 31.0304 9.91134 31.091 9.85371 31.1516L9.73846 31.091C9.79609 31.0304 9.85371 30.9698 9.91134 30.9092L10.0266 30.9698ZM9.16221 33.9395L11.8706 34.0001C11.0638 34.0001 10.4876 34.0001 9.16221 34.0607C8.98933 34.0607 8.9317 33.9395 9.16221 33.9395ZM12.6774 37.5152C12.735 37.4546 12.6774 37.4546 12.6774 37.394C12.5045 37.3334 12.3892 37.2728 12.2164 37.2122C12.2164 37.3334 12.274 37.4546 12.3892 37.4546L12.6774 37.5152C12.6197 37.5152 12.6197 37.5152 12.6774 37.5152ZM13.2536 38.9698C13.0231 38.788 12.5621 38.6667 12.5621 38.4849C12.5621 38.4243 12.5621 38.3637 12.6774 38.3637C12.735 38.3637 12.7926 38.3637 12.7926 38.3637C12.8502 38.3637 12.9079 38.3031 12.9079 38.2425C12.9079 38.1819 12.8502 38.1213 12.7926 38.1213C12.735 38.1213 12.6774 38.0607 12.6197 38.0607C12.2164 38.3637 11.2367 38.6061 11.2367 39.1516C11.2367 39.2122 11.2367 39.2122 11.2367 39.2728H11.5248C11.4672 39.1516 11.5825 39.0304 11.813 39.0304L13.2536 38.9698ZM11.1215 40.2425C11.8706 40.2425 12.6197 40.2425 13.3689 40.2425C13.4265 40.2425 13.4265 40.1819 13.4841 40.1819C12.8502 40.1819 12.1587 40.1819 11.5248 40.1819C11.352 40.1819 11.4096 40.0607 11.4672 40.0001C11.5248 39.9395 11.6401 39.9395 11.6977 39.9395H13.5417C13.5417 39.8183 13.4841 39.697 13.4265 39.6364C13.3689 39.6364 13.3112 39.5758 13.2536 39.5758C13.3689 39.5152 13.4841 39.3334 13.4841 39.2728C12.9079 39.2728 12.274 39.3334 11.6977 39.3334C11.6401 39.3334 11.5825 39.2728 11.5825 39.2122H11.2943C11.352 39.394 11.4672 39.5758 11.6401 39.697C11.5825 39.697 11.5825 39.697 11.5248 39.697H12.0435C11.8706 39.697 11.6401 39.697 11.4672 39.697C11.4096 39.697 11.352 39.7576 11.352 39.7576C11.2367 39.9395 11.1791 40.1213 11.1215 40.2425ZM11.5825 34.5455H11.6401C11.6977 34.5455 11.6977 34.4849 11.6977 34.4849C11.6977 34.4849 11.6977 34.4243 11.6401 34.4243C11.6401 34.3637 11.6401 34.3637 11.6401 34.3637C11.6977 34.3031 11.813 34.3031 11.9282 34.3031C12.1011 34.3031 12.2164 34.2425 12.1587 34.0607C12.1011 33.7577 11.4096 33.8789 11.4096 33.5152C11.4096 33.4546 11.4096 33.4546 11.4672 33.4546C11.6977 33.394 11.5825 33.1516 11.4096 33.1516H11.0062C11.4672 32.9698 11.7554 32.4849 11.813 31.9395C11.813 31.2122 11.2943 30.5455 10.5452 30.5455C9.85371 30.5455 9.21983 31.091 9.21983 31.8789C9.21983 32.4849 9.50796 32.9698 10.0266 33.1516H9.68083C9.50796 33.1516 9.39271 33.394 9.62321 33.4546C9.68084 33.4546 9.68083 33.4546 9.68083 33.5152C9.68083 33.8789 8.98933 33.7577 8.9317 34.0607C8.9317 34.3031 9.04695 34.3031 9.16221 34.3031C9.21983 34.3031 9.39271 34.3031 9.45033 34.3637C9.50796 34.3637 9.50796 34.4243 9.45033 34.4243L9.39271 34.4849C9.39271 34.5455 9.45033 34.5455 9.45033 34.5455H9.50796L9.45033 34.6061C9.45033 34.6667 9.50796 34.7273 9.56558 34.7273C9.73846 34.788 9.73846 34.8486 9.79609 34.9698C9.85371 35.7576 9.73846 36.4849 9.33508 36.9092C9.10458 37.1516 8.81645 37.2728 8.4707 37.394C8.41307 37.4546 8.41308 37.5152 8.52833 37.5152C8.4707 37.5152 8.4707 37.5758 8.4707 37.5758C8.4707 37.6364 8.4707 37.6364 8.52833 37.697C8.58595 37.697 8.64358 37.697 8.64358 37.7576C8.64358 37.8789 8.52833 38.0001 8.29782 38.0607C8.2402 38.0607 8.18257 38.1213 8.18257 38.1819C8.18257 38.2425 8.2402 38.3031 8.29782 38.3031C8.35545 38.3031 8.41308 38.3031 8.41308 38.3031C8.52833 38.3031 8.52833 38.3637 8.52833 38.4243C8.52833 38.7273 7.66394 38.7879 7.66394 39.2122C7.66394 39.3334 7.72157 39.5152 7.89445 39.5758C7.83682 39.5758 7.72157 39.6364 7.72157 39.6364C7.54869 39.7576 7.60632 40.1819 7.7792 40.1819C8.75883 40.1819 9.68083 40.1819 10.6605 40.1819C10.6605 40.1213 10.6605 40.1213 10.6605 40.0607C10.6605 39.9395 10.7181 39.8789 10.7757 39.7576C9.79609 39.7576 8.81645 39.8182 7.89445 39.8182C7.83682 39.8182 7.83682 39.7576 7.83682 39.697H7.95207H8.12495L10.7757 39.7576C10.7757 39.697 10.8333 39.6364 10.891 39.5758C10.8333 39.4546 10.7757 39.3334 10.7757 39.2122C9.91134 39.2728 8.87408 39.3334 7.95207 39.3334C7.83682 39.3334 7.77919 39.091 8.0097 39.091H10.7757C10.7757 39.0304 10.7757 39.0304 10.7757 38.9698C10.7757 38.5455 11.0062 38.2425 11.352 38.0607C10.43 38.0607 9.45033 38.0607 8.58595 38.1213C8.29782 38.1213 8.29782 38.0607 8.52833 38.0607H11.352C11.5248 37.9395 11.6977 37.8789 11.8706 37.7576C11.9282 37.7576 11.9859 37.697 12.0435 37.697C11.9859 37.6364 11.8706 37.5758 11.8706 37.5152C11.7554 37.394 11.6977 37.2122 11.7554 37.0304C11.7554 36.9698 11.813 36.9092 11.813 36.8486C11.4096 36.4243 11.2943 35.697 11.352 34.9092C11.352 34.8486 11.352 34.7273 11.5825 34.6667C11.6401 34.6667 11.6977 34.6061 11.6977 34.5455C11.6401 34.6667 11.6401 34.6061 11.5825 34.5455C11.5825 34.6061 11.5825 34.6061 11.5825 34.5455C11.5825 34.6061 11.5825 34.5455 11.5825 34.5455Z" fill="#FEFEFE"/>
<path d="M33.6543 8.48486H33.3086V9.33335H33.6543V8.48486Z" fill="#FEFEFE"/>
<path d="M32.8634 8.47763L32.748 8.49036L32.8322 9.33432L32.9476 9.32159L32.8634 8.47763Z" fill="#FEFEFE"/>
<path d="M29.5034 9.85848L29.4102 9.92969L29.8841 10.6163L29.9774 10.5451L29.5034 9.85848Z" fill="#FEFEFE"/>
<path d="M28.9294 10.3064L28.8438 10.3875L29.3832 11.0183L29.4689 10.9372L28.9294 10.3064Z" fill="#FEFEFE"/>
<path d="M28.4521 10.8503L28.375 10.9404L28.9748 11.5078L29.0519 11.4177L28.4521 10.8503Z" fill="#FEFEFE"/>
<path d="M34.8986 22.0533L34.7852 22.0787L34.9533 22.9088L35.0668 22.8833L34.8986 22.0533Z" fill="#FEFEFE"/>
<path d="M35.5536 21.867L35.4434 21.9047L35.6928 22.7121L35.8031 22.6744L35.5536 21.867Z" fill="#FEFEFE"/>
<path d="M36.1312 21.5727L36.0254 21.6224L36.3551 22.3978L36.4609 22.348L36.1312 21.5727Z" fill="#FEFEFE"/>
<path d="M37.2008 20.8895L37.1074 20.9606L37.5805 21.6478L37.6739 21.5768L37.2008 20.8895Z" fill="#FEFEFE"/>
<path d="M37.7028 20.4882L37.6172 20.5693L38.1572 21.1997L38.2429 21.1185L37.7028 20.4882Z" fill="#FEFEFE"/>
<path d="M38.1513 19.9507L38.0742 20.0409L38.6742 20.6081L38.7513 20.518L38.1513 19.9507Z" fill="#FEFEFE"/>
<path d="M38.5406 19.4458L38.4727 19.5437L39.1245 20.0436L39.1924 19.9457L38.5406 19.4458Z" fill="#FEFEFE"/>
<path d="M39.1973 18.2714L39.1504 18.3821L39.8874 18.7273L39.9343 18.6166L39.1973 18.2714Z" fill="#FEFEFE"/>
<path d="M39.4184 17.6485L39.3828 17.7638L40.1501 18.026L40.1857 17.9107L39.4184 17.6485Z" fill="#FEFEFE"/>
<path d="M39.5436 16.9895L39.5195 17.108L40.3085 17.2849L40.3326 17.1663L39.5436 16.9895Z" fill="#FEFEFE"/>
<path d="M39.6175 16.3084L39.6055 16.429L40.4078 16.5175L40.4198 16.3969L39.6175 16.3084Z" fill="#FEFEFE"/>
<path d="M40.4487 14.921L39.6465 15.011L39.6587 15.1315L40.4609 15.0415L40.4487 14.921Z" fill="#FEFEFE"/>
<path fill-rule="evenodd" clip-rule="evenodd" d="M40.2804 14.1818V14.2424L39.5312 14.4242V14.303L40.2804 14.1818Z" fill="#FEFEFE"/>
<path d="M40.1363 13.4369L39.3691 13.6995L39.4048 13.8147L40.1719 13.5521L40.1363 13.4369Z" fill="#FEFEFE"/>
<path d="M39.8326 12.7404L39.0957 13.0857L39.1426 13.1964L39.8795 12.8511L39.8326 12.7404Z" fill="#FEFEFE"/>
<path d="M39.5071 12.0314L38.8086 12.4559L38.8663 12.5609L39.5647 12.1364L39.5071 12.0314Z" fill="#FEFEFE"/>
<path d="M39.0788 11.4081L38.4258 11.9064L38.4935 12.0045L39.1464 11.5062L39.0788 11.4081Z" fill="#FEFEFE"/>
<path d="M38.646 10.8078L38.0469 11.3761L38.1241 11.4661L38.7232 10.8978L38.646 10.8078Z" fill="#FEFEFE"/>
<path d="M38.1572 10.2708L37.6172 10.9011L37.7028 10.9823L38.2429 10.3519L38.1572 10.2708Z" fill="#FEFEFE"/>
<path d="M37.534 9.80737L37.0605 10.4944L37.1539 10.5655L37.6274 9.87851L37.534 9.80737Z" fill="#FEFEFE"/>
<path d="M36.9432 9.417L36.5391 10.1528L36.6393 10.2138L37.0435 9.47792L36.9432 9.417Z" fill="#FEFEFE"/>
<path d="M36.2738 9.02629L35.9453 9.80225L36.0512 9.85181L36.3796 9.07585L36.2738 9.02629Z" fill="#FEFEFE"/>
<path d="M35.6036 8.76255L35.3555 9.57043L35.4658 9.60792L35.7139 8.80004L35.6036 8.76255Z" fill="#FEFEFE"/>
<path d="M34.8897 8.60746L34.7227 9.43774L34.8361 9.46299L35.0032 8.63271L34.8897 8.60746Z" fill="#FEFEFE"/>
<path d="M34.1623 8.51452L34.0781 9.3584L34.1935 9.37112L34.2777 8.52725L34.1623 8.51452Z" fill="#FEFEFE"/>
<path d="M39.4506 11.9256L38.752 12.3499L38.9248 12.6648L39.6235 12.2405L39.4506 11.9256Z" fill="#FEFEFE"/>
<path d="M38.9287 18.7921L38.7559 19.1071L39.4546 19.5312L39.6274 19.2163L38.9287 18.7921Z" fill="#FEFEFE"/>
<path d="M36.7901 9.3243L36.3867 10.0591L36.6861 10.2409L37.0895 9.50611L36.7901 9.3243Z" fill="#FEFEFE"/>
<path d="M40.4532 15.5151H39.6465V15.8788H40.4532V15.5151Z" fill="#FEFEFE"/>
<path d="M36.7838 21.2342L36.4844 21.416L36.8878 22.1508L37.1873 21.9689L36.7838 21.2342Z" fill="#FEFEFE"/>
<path fill-rule="evenodd" clip-rule="evenodd" d="M29.5625 11.3333L29.7354 11.1515L35.2098 17.3333L34.864 17.6969L29.5625 11.3333Z" fill="#FEFEFE"/>
<path fill-rule="evenodd" clip-rule="evenodd" d="M37.8603 15.6363V15.8788L31.4062 16L31.4639 15.5151L37.8603 15.6363Z" fill="#FEFEFE"/>
<path fill-rule="evenodd" clip-rule="evenodd" d="M33.538 7.9393C37.6294 7.9393 40.9717 11.4544 40.9717 15.7575C40.9717 19.6363 38.3209 22.7878 34.8057 23.4545C35.0362 23.7575 35.2091 24.0605 35.382 24.4241C39.1853 23.5151 42.0089 19.9999 42.0089 15.7575C42.0089 10.8484 38.2056 6.84839 33.538 6.84839C31.1753 6.84839 29.0432 7.87869 27.5449 9.51506C27.6602 9.69687 27.8331 9.9999 28.0636 10.5454C29.3889 8.90899 31.3482 7.9393 33.538 7.9393Z" fill="#FEFEFE"/>
<path d="M39.5071 12.0314L38.8086 12.4559L38.8663 12.5609L39.5647 12.1364L39.5071 12.0314Z" fill="#FEFEFE"/>
<path d="M36.9432 9.417L36.5391 10.1528L36.6393 10.2138L37.0435 9.47792L36.9432 9.417Z" fill="#FEFEFE"/>
<path fill-rule="evenodd" clip-rule="evenodd" d="M32.5586 9.99993V9.87871C32.6162 9.87871 32.6738 9.81811 32.7315 9.81811C32.7891 9.81811 32.8467 9.7575 32.9043 9.7575C32.962 9.6969 33.0196 9.6969 33.0772 9.63629C33.1348 9.57568 33.1348 9.57568 33.1925 9.57568C33.1925 9.63629 33.1925 9.7575 33.1925 9.87871C33.1925 9.99993 33.1925 10.1211 33.1925 10.2423C33.1925 10.3636 33.1925 10.4242 33.1925 10.4848C33.1925 10.5454 33.1925 10.606 33.1925 10.606C33.1925 10.7272 33.1925 10.7878 33.1925 10.8484C33.1925 10.909 33.1925 10.9696 33.1925 10.9696L33.2501 11.0302C33.2501 11.0302 33.3077 11.0302 33.3653 11.0302H33.423V11.0908H33.3653C33.3077 11.0908 33.2501 11.0908 33.1925 11.0908C33.1348 11.0908 33.0772 11.0908 33.0772 11.0908C33.0196 11.0908 32.962 11.0908 32.9043 11.0908C32.8467 11.0908 32.7891 11.0908 32.7891 11.0908H32.7315V11.0302H32.7891C32.8467 11.0302 32.8467 11.0302 32.9043 11.0302L32.962 10.9696C32.962 10.909 32.962 10.8484 32.962 10.7878C32.962 10.7272 32.962 10.5454 32.962 10.3636V10.1211C32.962 10.0605 32.962 9.93932 32.962 9.93932C32.962 9.87871 32.962 9.87871 32.9043 9.87871H32.8467C32.7891 9.87871 32.7315 9.93932 32.6738 9.93932C32.6162 9.93932 32.6162 9.99993 32.5586 9.99993Z" fill="#FEFEFE"/>
<path fill-rule="evenodd" clip-rule="evenodd" d="M33.4805 11.1515V11.0909C33.5381 11.0303 33.6533 10.9697 33.711 10.8485C33.7686 10.7273 33.8838 10.6667 33.9415 10.5454C33.9991 10.4242 34.0567 10.303 34.1144 10.2424C34.172 10.1212 34.172 10.0606 34.172 9.93938C34.172 9.87878 34.172 9.75757 34.1144 9.75757C34.0567 9.69696 33.9991 9.69696 33.9415 9.69696C33.8838 9.69696 33.8262 9.69696 33.7686 9.75757C33.711 9.81817 33.6533 9.87878 33.6533 9.99999C33.5957 9.93938 33.5957 9.87878 33.5381 9.81817C33.5957 9.75757 33.6533 9.69696 33.711 9.69696C33.7686 9.63635 33.8262 9.63635 33.8838 9.63635C33.9415 9.63635 33.9991 9.63635 34.0567 9.63635C34.1143 9.63635 34.172 9.63635 34.2296 9.69696C34.2872 9.69696 34.3449 9.75757 34.3449 9.81817C34.4025 9.87878 34.4025 9.93938 34.4025 9.99999C34.4025 10.0606 34.4025 10.1212 34.3449 10.1818C34.3449 10.2424 34.2872 10.303 34.2296 10.3636C34.172 10.4242 34.1144 10.5454 33.9991 10.6061C33.9415 10.7273 33.8262 10.8485 33.6533 10.9697C33.8262 10.9091 33.9415 10.9091 33.9991 10.9091C34.0567 10.9091 34.1143 10.9091 34.172 10.9091C34.2296 10.9091 34.3449 10.9091 34.4025 10.9091C34.4601 10.9091 34.5177 10.8485 34.5177 10.7273H34.5754C34.5177 10.9091 34.4601 11.0303 34.4601 11.1515C34.4025 11.1515 34.3449 11.1515 34.2872 11.1515C34.2296 11.1515 34.172 11.1515 34.1144 11.1515C34.0567 11.1515 33.9415 11.1515 33.8838 11.1515C33.711 11.0909 33.5957 11.0909 33.4805 11.1515Z" fill="#FEFEFE"/>
<path fill-rule="evenodd" clip-rule="evenodd" d="M35.959 10.8486V10.7273C36.0166 10.7273 36.0742 10.6667 36.1319 10.6667C36.1895 10.6667 36.2471 10.6061 36.3047 10.6061C36.3624 10.5455 36.42 10.5455 36.4776 10.4849C36.5352 10.4243 36.5352 10.4243 36.5929 10.4243C36.5929 10.4849 36.5929 10.6061 36.5929 10.7273C36.5929 10.8486 36.5929 10.9698 36.5929 11.091C36.5929 11.2122 36.5929 11.2728 36.5929 11.3334C36.5929 11.394 36.5929 11.4546 36.5929 11.4546C36.5929 11.5758 36.5929 11.6364 36.5929 11.697C36.5929 11.7576 36.5929 11.8183 36.5929 11.8183L36.6505 11.8789C36.6505 11.8789 36.7081 11.8789 36.7657 11.8789H36.8234V11.9395H36.7657C36.7081 11.9395 36.6505 11.9395 36.5929 11.9395C36.5352 11.9395 36.4776 11.9395 36.4776 11.9395C36.42 11.9395 36.3624 11.9395 36.3047 11.9395C36.2471 11.9395 36.1895 11.9395 36.1895 11.9395H36.1319V11.8789H36.1895C36.2471 11.8789 36.2471 11.8789 36.3047 11.8789L36.3624 11.8183C36.3624 11.7576 36.3624 11.697 36.3624 11.6364C36.3624 11.5758 36.3624 11.394 36.3624 11.2122V10.9698C36.3624 10.9092 36.3624 10.788 36.3624 10.788C36.3624 10.7273 36.3624 10.7273 36.3047 10.7273H36.2471C36.1895 10.7273 36.1319 10.788 36.0742 10.788C36.0166 10.788 35.959 10.8486 35.959 10.8486Z" fill="#FEFEFE"/>
<path fill-rule="evenodd" clip-rule="evenodd" d="M37.6289 14V13.9394C37.6865 13.8788 37.8018 13.8182 37.8594 13.697C37.917 13.5758 38.0323 13.5152 38.0899 13.394C38.1475 13.2727 38.2052 13.1515 38.2628 13.0909C38.3204 12.9697 38.3204 12.9091 38.3204 12.7879C38.3204 12.7273 38.3204 12.6061 38.2628 12.6061C38.2052 12.5455 38.1475 12.5455 38.1475 12.5455C38.0899 12.5455 38.0323 12.5455 37.9747 12.6061C37.917 12.6667 37.8594 12.7273 37.8594 12.8485C37.8018 12.7879 37.8018 12.7273 37.7442 12.6667C37.8018 12.6061 37.8594 12.5455 37.917 12.5455C37.9747 12.4849 38.0323 12.4849 38.0899 12.4849C38.1475 12.4849 38.2052 12.4849 38.2628 12.4849C38.3204 12.4849 38.378 12.4849 38.4357 12.5455C38.4933 12.5455 38.5509 12.6061 38.5509 12.6667C38.6085 12.7273 38.6085 12.7879 38.6085 12.8485C38.6085 12.9091 38.6085 12.9697 38.5509 13.0303C38.5509 13.0909 38.4933 13.1515 38.4357 13.2121C38.378 13.2727 38.3204 13.394 38.2052 13.4546C38.1475 13.5758 38.0323 13.697 37.8594 13.8182C37.917 13.7576 38.0323 13.7576 38.0899 13.7576C38.1475 13.7576 38.2052 13.7576 38.2628 13.7576C38.3204 13.7576 38.4357 13.7576 38.4933 13.7576C38.5509 13.7576 38.6085 13.697 38.6085 13.5758H38.7238C38.6662 13.7576 38.6085 13.8788 38.6085 14C38.5509 14 38.4933 14 38.4357 14C38.378 14 38.3204 14 38.2628 14C38.2052 14 38.0899 14 38.0323 14C37.8594 13.9394 37.7442 13.9394 37.6289 14Z" fill="#FEFEFE"/>
<path fill-rule="evenodd" clip-rule="evenodd" d="M38.6094 15.7575V15.6363C38.667 15.6363 38.7247 15.5757 38.8399 15.5151C38.8975 15.4545 38.9552 15.3939 39.0128 15.3333C39.0704 15.2727 39.0704 15.2121 39.0704 15.1515C39.0704 15.0909 39.0704 15.0303 39.0128 15.0303C38.9552 15.0303 38.9552 14.9697 38.8975 14.9697C38.8399 14.9697 38.7823 14.9697 38.7247 15.0303C38.667 15.0909 38.6094 15.1515 38.6094 15.2727C38.5518 15.2121 38.5518 15.1515 38.4942 15.0909C38.4942 15.0909 38.5518 15.0303 38.6094 15.0303C38.667 14.9697 38.7247 14.9697 38.7823 14.9697C38.8399 14.9697 38.8975 14.9091 39.0128 14.9091C39.128 14.9091 39.1857 14.9091 39.2433 14.9697C39.3009 15.0303 39.3009 15.0909 39.3009 15.1515C39.3009 15.2727 39.1857 15.4545 38.8975 15.5151C38.9552 15.5151 39.0128 15.5151 39.128 15.5151C39.1857 15.5151 39.2433 15.5151 39.3009 15.5757C39.3585 15.6363 39.3585 15.6363 39.3585 15.6969C39.3585 15.7575 39.3585 15.8181 39.3585 15.8788C39.3585 15.9394 39.3585 16 39.3009 16.0606C39.3009 16.1212 39.2433 16.1818 39.1857 16.2424C39.128 16.303 39.0704 16.3636 38.9552 16.3636C38.8975 16.4242 38.7823 16.4242 38.667 16.4242C38.5518 16.4242 38.4365 16.4242 38.3789 16.3636C38.4365 16.303 38.4365 16.1818 38.4365 16.1212C38.4942 16.2424 38.6094 16.303 38.667 16.303C38.7247 16.303 38.7823 16.303 38.8399 16.2424C38.8975 16.1818 38.9552 16.1818 38.9552 16.1212C39.0128 16.0606 39.0128 16 39.0128 15.8788C39.0128 15.8181 39.0128 15.7575 38.9552 15.6969C38.9552 15.6363 38.8975 15.5757 38.8399 15.5757C38.7823 15.5757 38.7247 15.5151 38.667 15.5151C38.6094 15.5151 38.6094 15.5151 38.5518 15.5151C38.667 15.6969 38.6094 15.7575 38.6094 15.7575Z" fill="#FEFEFE"/>
<path fill-rule="evenodd" clip-rule="evenodd" d="M38.1485 17.697C38.0909 17.7576 37.9757 17.8788 37.8604 18.0607C37.7452 18.2425 37.6875 18.3637 37.6299 18.4243H37.6875H37.7452C37.7452 18.4243 37.8028 18.4243 37.8604 18.4243C37.8604 18.4243 37.918 18.4243 37.9757 18.4243C38.0333 18.4243 38.0909 18.4243 38.1485 18.4243V18.3637C38.1485 18.3031 38.1485 18.3031 38.1485 18.2425C38.1485 18.1819 38.1485 18.1213 38.1485 18.1213C38.0909 17.8788 38.0909 17.7576 38.1485 17.697ZM38.5519 18.9697H38.4943H38.4367C38.379 18.9697 38.379 18.9697 38.379 18.9697C38.379 18.9697 38.3214 18.9697 38.2638 18.9697C38.2062 18.9697 38.2062 18.9697 38.1485 18.9697C38.1485 18.9697 38.1485 18.9697 38.0909 18.9697C38.0909 18.9697 38.0909 18.9697 38.0333 18.9697C38.0333 18.9697 38.0333 18.9697 37.9757 18.9697H37.8604V18.9091H37.918H37.9757C38.0333 18.9091 38.0333 18.9091 38.0333 18.9091L38.0909 18.8485C38.0909 18.7879 38.0909 18.7273 38.0909 18.6667V18.6061C38.0333 18.6061 37.918 18.6061 37.8028 18.6061C37.6875 18.6061 37.5723 18.6061 37.457 18.6061V18.5455C37.5723 18.4243 37.6875 18.2425 37.8028 18C37.9757 17.8182 38.0909 17.6364 38.2062 17.4546C38.2638 17.4546 38.3214 17.5152 38.3214 17.5152C38.3214 17.5758 38.3214 17.697 38.3214 17.8182C38.3214 17.9394 38.3214 18.1213 38.3214 18.3637V18.4243C38.4367 18.4243 38.4943 18.4243 38.5519 18.3637C38.5519 18.4243 38.4943 18.4849 38.4943 18.5455H38.3214C38.3214 18.6667 38.3214 18.7273 38.3214 18.7879C38.3214 18.8485 38.3214 18.8485 38.379 18.9091C38.379 18.9091 38.4367 18.9091 38.4943 18.9091H38.5519V18.9697Z" fill="#FEFEFE"/>
<path fill-rule="evenodd" clip-rule="evenodd" d="M36.88 19.4545H36.9376C36.88 19.6363 36.88 19.7575 36.88 19.8787C36.8224 19.8787 36.7071 19.8787 36.5919 19.8787C36.4766 19.8787 36.419 19.8787 36.3614 19.8787C36.3037 19.9393 36.3038 19.9999 36.3038 19.9999V20.0605C36.3038 20.0605 36.3037 20.0605 36.3614 20.0605C36.3614 20.0605 36.419 20.0605 36.4766 20.0605C36.5343 20.0605 36.5919 20.0605 36.5919 20.1211C36.6495 20.1211 36.7071 20.1817 36.7648 20.1817C36.8224 20.2423 36.88 20.303 36.88 20.3636C36.9376 20.4242 36.9376 20.5454 36.9376 20.606C36.9376 20.7272 36.88 20.7878 36.88 20.909C36.8224 20.9696 36.7647 21.0908 36.6495 21.1514C36.5342 21.212 36.419 21.212 36.3038 21.212C36.2461 21.212 36.1309 21.212 36.0156 21.1514C36.0733 21.0908 36.0732 20.9696 36.0732 20.909C36.1309 20.9696 36.1309 21.0302 36.1885 21.0302C36.2461 21.0302 36.2461 21.0908 36.3038 21.0908C36.3614 21.0908 36.419 21.0908 36.4766 21.0302C36.5343 20.9696 36.5919 20.9696 36.5919 20.909C36.6495 20.8484 36.6495 20.7878 36.6495 20.7272C36.6495 20.6666 36.6495 20.5454 36.5919 20.4848C36.5343 20.4242 36.5343 20.3636 36.4766 20.3636C36.419 20.303 36.3614 20.303 36.3038 20.303C36.2461 20.303 36.1885 20.303 36.1309 20.303C36.1885 20.1817 36.1885 20.1211 36.1885 20.0605C36.1885 19.9999 36.2461 19.9393 36.2461 19.8787C36.2461 19.8181 36.3038 19.7575 36.3038 19.6969C36.3614 19.6969 36.419 19.6969 36.4766 19.6969C36.5343 19.6969 36.5919 19.6969 36.6495 19.6969H36.7071C36.7648 19.6969 36.7648 19.6969 36.8224 19.6969C36.8224 19.6969 36.88 19.6969 36.88 19.6363C36.8224 19.5757 36.8224 19.5151 36.88 19.4545Z" fill="#FEFEFE"/>
<path d="M15.6172 8.48486H15.2715V9.33335H15.6172V8.48486Z" fill="#FEFEFE"/>
<path d="M14.8244 8.478L14.709 8.49072L14.7931 9.33468L14.9085 9.32196L14.8244 8.478Z" fill="#FEFEFE"/>
<path d="M11.4663 9.85668L11.373 9.92786L11.8468 10.6146L11.9401 10.5434L11.4663 9.85668Z" fill="#FEFEFE"/>
<path d="M10.8903 10.3037L10.8047 10.3849L11.3449 11.0151L11.4305 10.9339L10.8903 10.3037Z" fill="#FEFEFE"/>
<path d="M10.4131 10.8471L10.3359 10.9371L10.9353 11.5051L11.0124 11.4151L10.4131 10.8471Z" fill="#FEFEFE"/>
<path d="M9.92527 11.4523L9.85742 11.5503L10.5096 12.0498L10.5775 11.9518L9.92527 11.4523Z" fill="#FEFEFE"/>
<path d="M9.16193 12.765L9.11523 12.8759L9.85277 13.2197L9.89947 13.1088L9.16193 12.765Z" fill="#FEFEFE"/>
<path fill-rule="evenodd" clip-rule="evenodd" d="M8.875 13.5758L8.93263 13.4546L9.68175 13.7576L9.62413 13.8182L8.875 13.5758Z" fill="#FEFEFE"/>
<path d="M8.74086 14.2069L8.7168 14.3254L9.5058 14.5026L9.52987 14.3841L8.74086 14.2069Z" fill="#FEFEFE"/>
<path d="M8.63895 14.9714L8.62695 15.0919L9.42935 15.1802L9.44135 15.0597L8.63895 14.9714Z" fill="#FEFEFE"/>
<path d="M9.38427 16.3819L8.58203 16.4718L8.59424 16.5923L9.39647 16.5025L9.38427 16.3819Z" fill="#FEFEFE"/>
<path d="M9.48855 17.0682L8.69922 17.2435L8.72303 17.3621L9.51236 17.1868L9.48855 17.0682Z" fill="#FEFEFE"/>
<path d="M9.64019 17.6975L8.87305 17.9601L8.90872 18.0753L9.67586 17.8127L9.64019 17.6975Z" fill="#FEFEFE"/>
<path d="M9.90079 18.3106L9.16406 18.6564L9.21103 18.7671L9.94776 18.4213L9.90079 18.3106Z" fill="#FEFEFE"/>
<path d="M10.5547 19.5003L9.90234 19.9995L9.97016 20.0975L10.6225 19.5983L10.5547 19.5003Z" fill="#FEFEFE"/>
<path d="M10.9255 20.0361L10.3262 20.6041L10.4033 20.6942L11.0027 20.1262L10.9255 20.0361Z" fill="#FEFEFE"/>
<path d="M11.384 20.4733L10.8438 21.1034L10.9293 21.1846L11.4696 20.5545L11.384 20.4733Z" fill="#FEFEFE"/>
<path d="M11.8936 20.9321L11.4199 21.6189L11.5132 21.6901L11.9869 21.0033L11.8936 20.9321Z" fill="#FEFEFE"/>
<path d="M20.6072 10.8073L20.0078 11.3752L20.085 11.4653L20.6843 10.8973L20.6072 10.8073Z" fill="#FEFEFE"/>
<path d="M20.0811 10.3128L19.541 10.9431L19.6266 11.0243L20.1667 10.3939L20.0811 10.3128Z" fill="#FEFEFE"/>
<path d="M19.4969 9.80468L19.0234 10.4917L19.1168 10.5628L19.5902 9.87582L19.4969 9.80468Z" fill="#FEFEFE"/>
<path d="M18.9042 9.41297L18.5 10.1488L18.6003 10.2097L19.0044 9.47389L18.9042 9.41297Z" fill="#FEFEFE"/>
<path d="M18.2348 9.02308L17.9062 9.79895L18.0121 9.84854L18.3407 9.07267L18.2348 9.02308Z" fill="#FEFEFE"/>
<path d="M17.5626 8.75902L17.3145 9.56689L17.4248 9.60438L17.6729 8.7965L17.5626 8.75902Z" fill="#FEFEFE"/>
<path d="M16.8523 8.6031L16.6855 9.43347L16.799 9.45868L16.9658 8.62831L16.8523 8.6031Z" fill="#FEFEFE"/>
<path d="M16.1213 8.50964L16.0371 9.35352L16.1525 9.36624L16.2366 8.52237L16.1213 8.50964Z" fill="#FEFEFE"/>
<path d="M12.3155 21.2235L11.9121 21.9583L12.2115 22.1401L12.6149 21.4053L12.3155 21.2235Z" fill="#FEFEFE"/>
<path d="M9.3927 15.5758H8.58594V15.9394H9.3927V15.5758Z" fill="#FEFEFE"/>
<path d="M18.7531 9.32026L18.3496 10.0551L18.649 10.2369L19.0525 9.50212L18.7531 9.32026Z" fill="#FEFEFE"/>
<path d="M10.1244 18.8451L9.42578 19.2694L9.59869 19.5843L10.2973 19.16L10.1244 18.8451Z" fill="#FEFEFE"/>
<path d="M9.57131 12.0168L9.39844 12.3317L10.0971 12.7559L10.27 12.441L9.57131 12.0168Z" fill="#FEFEFE"/>
<path fill-rule="evenodd" clip-rule="evenodd" d="M17.5756 10.0605L17.8638 10.1818L14.8096 17.9999L14.4062 17.8181L17.5756 10.0605Z" fill="#FEFEFE"/>
<path fill-rule="evenodd" clip-rule="evenodd" d="M17.7476 19.6364L17.5747 19.7576L14.2324 13.9394L14.6358 13.697L17.7476 19.6364Z" fill="#FEFEFE"/>
<path fill-rule="evenodd" clip-rule="evenodd" d="M15.5002 7.9393C17.69 7.9393 19.6493 8.90899 20.9747 10.4848C21.1475 9.9999 21.3204 9.69687 21.4933 9.45445C19.9374 7.81809 17.8629 6.84839 15.5002 6.84839C10.8326 6.84839 7.0293 10.8484 7.0293 15.7575C7.0293 19.3938 9.10381 22.5454 12.1003 23.9393C12.1003 23.8787 12.0427 23.7575 12.0427 23.6969C11.9851 23.3938 11.9275 22.909 11.8698 22.606C9.62244 21.212 8.06655 18.6666 8.06655 15.7575C8.06655 11.4544 11.4088 7.9393 15.5002 7.9393Z" fill="#FEFEFE"/>
<path d="M18.9042 9.41297L18.5 10.1488L18.6003 10.2097L19.0044 9.47389L18.9042 9.41297Z" fill="#FEFEFE"/>
<path fill-rule="evenodd" clip-rule="evenodd" d="M14.5215 9.99993V9.87871C14.5791 9.87871 14.6367 9.81811 14.6944 9.81811C14.752 9.81811 14.8096 9.7575 14.8672 9.7575C14.9249 9.6969 14.9825 9.6969 15.0401 9.63629C15.0977 9.57568 15.0977 9.57568 15.1554 9.57568C15.1554 9.63629 15.1554 9.7575 15.1554 9.87871C15.1554 9.99993 15.1554 10.1211 15.1554 10.2423C15.1554 10.3636 15.1554 10.4242 15.1554 10.4848C15.1554 10.5454 15.1554 10.606 15.1554 10.606C15.1554 10.7272 15.1554 10.7878 15.1554 10.8484C15.1554 10.909 15.1554 10.9696 15.1554 10.9696L15.213 11.0302C15.213 11.0302 15.2706 11.0302 15.3282 11.0302H15.3859V11.0908H15.3282C15.2706 11.0908 15.213 11.0908 15.1554 11.0908C15.0977 11.0908 15.0401 11.0908 15.0401 11.0908C14.9825 11.0908 14.9249 11.0908 14.8672 11.0908C14.8096 11.0908 14.752 11.0908 14.752 11.0908H14.6944V11.0302H14.752C14.8096 11.0302 14.8096 11.0302 14.8672 11.0302L14.9249 10.9696C14.9249 10.909 14.9249 10.8484 14.9249 10.7878C14.9249 10.7272 14.9249 10.5454 14.9249 10.3636V10.1211C14.9249 10.0605 14.9249 9.93932 14.9249 9.93932C14.9249 9.87871 14.9249 9.87871 14.8672 9.87871H14.8096C14.752 9.87871 14.6944 9.93932 14.6367 9.93932C14.5791 9.93932 14.5791 9.99993 14.5215 9.99993Z" fill="#FEFEFE"/>
<path fill-rule="evenodd" clip-rule="evenodd" d="M15.4434 11.1515V11.0909C15.501 11.0303 15.6162 10.9697 15.6739 10.8485C15.7315 10.7273 15.8467 10.6667 15.9044 10.5454C15.962 10.4242 16.0196 10.303 16.0772 10.2424C16.1349 10.1212 16.1349 10.0606 16.1349 9.93938C16.1349 9.87878 16.1349 9.75757 16.0772 9.75757C16.0196 9.69696 15.962 9.69696 15.9044 9.69696C15.8467 9.69696 15.7891 9.69696 15.7315 9.75757C15.6739 9.81817 15.6162 9.87878 15.6162 9.99999C15.5586 9.93938 15.5586 9.87878 15.501 9.81817C15.5586 9.75757 15.6162 9.69696 15.6739 9.69696C15.7315 9.63635 15.7891 9.63635 15.8467 9.63635C15.9044 9.63635 15.962 9.63635 16.0196 9.63635C16.0772 9.63635 16.1349 9.63635 16.1925 9.69696C16.2501 9.69696 16.3077 9.75757 16.3077 9.81817C16.3654 9.87878 16.3654 9.93938 16.3654 9.99999C16.3654 10.0606 16.3654 10.1212 16.3077 10.1818C16.3077 10.2424 16.2501 10.303 16.1925 10.3636C16.1349 10.4242 16.0772 10.5454 15.962 10.6061C15.9044 10.7273 15.7891 10.8485 15.6162 10.9697C15.6739 10.9091 15.7891 10.9091 15.8467 10.9091C15.9044 10.9091 15.962 10.9091 16.0196 10.9091C16.0772 10.9091 16.1925 10.9091 16.2501 10.9091C16.3077 10.9091 16.3654 10.8485 16.3654 10.7273H16.4806C16.423 10.9091 16.3654 11.0303 16.3654 11.1515C16.3077 11.1515 16.2501 11.1515 16.1925 11.1515C16.1349 11.1515 16.0772 11.1515 16.0196 11.1515C15.962 11.1515 15.8467 11.1515 15.7891 11.1515C15.6739 11.0909 15.5586 11.0909 15.4434 11.1515Z" fill="#FEFEFE"/>
<path fill-rule="evenodd" clip-rule="evenodd" d="M17.9219 10.8486V10.7273C17.9795 10.7273 18.0371 10.6667 18.0948 10.6667C18.1524 10.6667 18.21 10.6061 18.2676 10.6061C18.3253 10.5455 18.3829 10.5455 18.4405 10.4849C18.4981 10.4243 18.4981 10.4243 18.5558 10.4243C18.5558 10.4849 18.5558 10.6061 18.5558 10.7273C18.5558 10.8486 18.5558 10.9698 18.5558 11.091C18.5558 11.2122 18.5558 11.2728 18.5558 11.3334C18.5558 11.394 18.5558 11.4546 18.5558 11.4546C18.5558 11.5758 18.5558 11.6364 18.5558 11.697C18.5558 11.7576 18.5558 11.8183 18.5558 11.8183L18.6134 11.8789C18.6134 11.8789 18.671 11.8789 18.7286 11.8789H18.7863V11.9395H18.7286C18.671 11.9395 18.6134 11.9395 18.5558 11.9395C18.4981 11.9395 18.4405 11.9395 18.4405 11.9395C18.3829 11.9395 18.3253 11.9395 18.2676 11.9395C18.21 11.9395 18.1524 11.9395 18.1524 11.9395H18.0948V11.8789H18.1524C18.21 11.8789 18.21 11.8789 18.2676 11.8789L18.3253 11.8183C18.3253 11.7576 18.3253 11.697 18.3253 11.6364C18.3253 11.5758 18.3253 11.394 18.3253 11.2122V10.9698C18.3253 10.9092 18.3253 10.788 18.3253 10.788C18.3253 10.7273 18.3253 10.7273 18.2676 10.7273H18.21C18.1524 10.7273 18.0948 10.788 18.0371 10.788C17.9795 10.788 17.9219 10.8486 17.9219 10.8486Z" fill="#FEFEFE"/>
<path fill-rule="evenodd" clip-rule="evenodd" d="M10.9483 18.3636C10.8907 18.4242 10.8331 18.4848 10.7754 18.5454C10.7178 18.606 10.7178 18.6667 10.7178 18.7879C10.7178 18.8485 10.7178 18.9091 10.7754 18.9697C10.7754 19.0303 10.8331 19.0303 10.8907 19.0909C10.9483 19.0909 11.0059 19.1515 11.0059 19.1515C11.0636 19.1515 11.1212 19.1515 11.1212 19.0909C11.1788 19.0909 11.1788 19.0303 11.2364 18.9697C11.2364 18.9091 11.2941 18.9091 11.2941 18.8485C11.2941 18.7879 11.2941 18.7273 11.2364 18.606C11.1212 18.4848 11.0636 18.4242 10.9483 18.3636ZM11.0636 18.1818C11.1212 18.1212 11.1788 18.1212 11.1788 18.0606C11.2364 18 11.2364 17.9394 11.2364 17.8788C11.2364 17.8182 11.2364 17.8182 11.2364 17.7576C11.2364 17.697 11.1788 17.697 11.1788 17.6363C11.1212 17.6363 11.1212 17.5757 11.0636 17.5757C11.0059 17.5757 10.9483 17.5757 10.8907 17.6363C10.8331 17.697 10.8331 17.7576 10.8331 17.8182C10.8331 17.8788 10.8331 17.9394 10.8907 18C10.8907 18.0606 10.9483 18.1212 11.0636 18.1818ZM10.8331 18.303C10.7754 18.2424 10.7178 18.2424 10.6602 18.1818C10.6026 18.1212 10.6026 18.1212 10.5449 18.0606C10.5449 18 10.4873 17.9394 10.4873 17.8788C10.4873 17.8182 10.4873 17.7576 10.5449 17.697C10.6026 17.6363 10.6602 17.5757 10.7178 17.5757C10.7754 17.5151 10.8907 17.5151 10.9483 17.5151C11.0636 17.5151 11.1212 17.5151 11.1788 17.5757C11.2364 17.6363 11.2941 17.6363 11.2941 17.697C11.2941 17.7576 11.3517 17.8182 11.3517 17.8182C11.3517 17.8788 11.3517 18 11.2941 18C11.2364 18.0606 11.1788 18.1212 11.0636 18.1818C11.1788 18.2424 11.2364 18.303 11.2941 18.3636C11.3517 18.4242 11.4093 18.5454 11.4093 18.606C11.4093 18.6667 11.4093 18.7879 11.3517 18.8485C11.2941 18.9091 11.2364 18.9697 11.1788 19.0303C11.1212 19.0909 11.0059 19.0909 10.8907 19.0909C10.7754 19.0909 10.7178 19.0909 10.6602 19.0303C10.6026 18.9697 10.5449 18.9697 10.4873 18.9091C10.4297 18.8485 10.4297 18.7879 10.4297 18.7273C10.4873 18.5454 10.6026 18.4242 10.8331 18.303Z" fill="#FEFEFE"/>
<path fill-rule="evenodd" clip-rule="evenodd" d="M9.79689 16.5455V16.4849C9.96977 16.4243 10.085 16.3031 10.1426 16.1818C10.2579 16.0606 10.3155 15.9394 10.3155 15.8788C10.3731 15.7576 10.3731 15.697 10.3731 15.5758C10.3731 15.4546 10.3731 15.3334 10.3155 15.2728C10.3155 15.2121 10.2579 15.1515 10.2003 15.0909C10.1426 15.0303 10.085 15.0303 10.085 15.0303C10.0274 15.0303 9.96977 15.0909 9.91214 15.1515C9.85452 15.2121 9.85452 15.3334 9.85452 15.394C9.85452 15.4546 9.85452 15.5152 9.91214 15.5758C9.91214 15.6364 9.96977 15.697 10.0274 15.697C10.085 15.697 10.085 15.7576 10.1426 15.7576C10.2003 15.7576 10.2579 15.7576 10.2579 15.697V15.7576C10.2003 15.8182 10.085 15.8182 10.0274 15.8182C9.96977 15.8182 9.91214 15.8182 9.85452 15.7576C9.79689 15.697 9.73927 15.697 9.73927 15.5758C9.68164 15.5152 9.68164 15.4546 9.68164 15.3334C9.68164 15.2728 9.68164 15.1515 9.73927 15.0909C9.79689 15.0303 9.85452 14.9697 9.91214 14.9091C9.96977 14.8485 10.085 14.8485 10.2003 14.8485C10.3155 14.8485 10.3731 14.8485 10.4308 14.9091C10.4884 14.9697 10.546 14.9697 10.6036 15.0303C10.6613 15.0909 10.6613 15.1515 10.7189 15.2121C10.7189 15.2728 10.7765 15.3334 10.7765 15.4546C10.7765 15.5152 10.7765 15.6364 10.7189 15.697C10.7189 15.7576 10.6613 15.8788 10.6036 16C10.546 16.1212 10.4308 16.1818 10.3155 16.3031C10.1426 16.4243 9.96977 16.4849 9.79689 16.5455Z" fill="#FEFEFE"/>
<path fill-rule="evenodd" clip-rule="evenodd" d="M10.1426 12.9698V12.8486C10.2002 12.8486 10.2578 12.788 10.3155 12.788C10.3731 12.788 10.4307 12.7274 10.4883 12.7274C10.546 12.6667 10.6036 12.6667 10.6612 12.6061C10.7188 12.5455 10.7188 12.5455 10.7765 12.5455C10.7765 12.6061 10.7765 12.7274 10.7765 12.8486C10.7765 12.9698 10.7765 13.091 10.7765 13.2122C10.7765 13.3334 10.7765 13.394 10.7765 13.4546C10.7765 13.5152 10.7765 13.5758 10.7765 13.5758C10.7765 13.697 10.7765 13.7577 10.7765 13.8183C10.7765 13.8789 10.7765 13.9395 10.7765 13.9395L10.8341 14.0001C10.8341 14.0001 10.8917 14.0001 10.9493 14.0001H11.007V14.0607H10.9493C10.8917 14.0607 10.8341 14.0607 10.7765 14.0607C10.7188 14.0607 10.6612 14.0607 10.6612 14.0607C10.6036 14.0607 10.546 14.0607 10.4883 14.0607C10.4307 14.0607 10.3731 14.0607 10.3731 14.0607H10.3155V14.0001H10.3731C10.4307 14.0001 10.4307 14.0001 10.4883 14.0001L10.546 13.9395C10.546 13.8789 10.546 13.8183 10.546 13.7577C10.546 13.697 10.546 13.5152 10.546 13.3334V13.091C10.546 13.0304 10.546 12.9698 10.546 12.9092C10.546 12.8486 10.546 12.8486 10.4883 12.8486H10.3731C10.3155 12.8486 10.2578 12.9092 10.2002 12.9092C10.2002 12.9092 10.1426 12.9092 10.1426 12.9698Z" fill="#FEFEFE"/>
<path fill-rule="evenodd" clip-rule="evenodd" d="M11.1797 13.4544C11.1797 13.5757 11.2373 13.6969 11.2373 13.7575C11.295 13.8181 11.295 13.8787 11.3526 13.9393C11.4102 13.9999 11.4102 13.9999 11.4678 13.9999C11.5255 13.9999 11.5831 13.9393 11.6407 13.8787C11.6984 13.8181 11.6984 13.6363 11.6984 13.4544C11.6984 13.3332 11.6984 13.1514 11.6407 13.0302C11.6407 12.909 11.5831 12.7878 11.5255 12.7272C11.4678 12.6666 11.4102 12.606 11.3526 12.606C11.295 12.606 11.2373 12.606 11.2373 12.6666C11.1797 12.6666 11.1797 12.7272 11.1221 12.8484C11.0645 12.909 11.0645 13.0302 11.0645 13.1514C11.1797 13.2726 11.1797 13.3938 11.1797 13.4544ZM10.9492 13.3332C10.9492 13.212 10.9492 13.0908 11.0068 13.0302C11.0645 12.909 11.0645 12.8484 11.1221 12.7878C11.1797 12.7272 11.2373 12.6666 11.295 12.6666C11.3526 12.606 11.4102 12.606 11.5255 12.606C11.6407 12.606 11.756 12.6666 11.8136 12.7272C11.8712 12.7878 11.9865 12.909 11.9865 13.0302C12.0441 13.1514 12.0441 13.2726 12.0441 13.3938C12.0441 13.5757 12.0441 13.7575 11.9865 13.8787C11.9289 13.9999 11.8712 14.0605 11.756 14.1211C11.6984 14.1817 11.5831 14.1817 11.4678 14.1817C11.4102 14.1817 11.295 14.1817 11.2373 14.1211C11.1797 14.0605 11.1221 13.9999 11.0645 13.9393C11.0068 13.8787 10.9492 13.7575 10.9492 13.6969C10.9492 13.515 10.9492 13.4544 10.9492 13.3332Z" fill="#FEFEFE"/>
<path d="M5.53228 4.96959H13.3117V4.30292H17.3455V4.96959H32.501V3.75746H31.4637V2.36353H35.4975V3.75746H34.5755V4.96959H43.9108V26.5453H36.0161C36.0161 26.2423 35.9585 25.9393 35.9009 25.6969H43.1041V5.81807H5.93566V25.6363H11.8711C11.8711 25.6969 11.8711 25.7575 11.8711 25.8181C11.8711 26.0605 11.9863 26.3029 12.1016 26.4847H5.12891V4.96959H5.53228Z" fill="#FEFEFE"/>
<path fill-rule="evenodd" clip-rule="evenodd" d="M37.1684 30.4242C37.226 30.4242 37.2837 30.4848 37.2837 30.5454C37.2837 30.606 37.226 30.6666 37.1684 30.6666H37.1108C37.1684 30.6666 37.226 30.606 37.226 30.5454C37.226 30.5454 37.1684 30.4848 37.1684 30.4242ZM36.7074 30.8484C36.8227 30.4242 37.1108 30.2424 37.4565 30.3636C37.1684 30.3636 36.9955 30.3636 36.7074 30.8484ZM36.5922 38.1212H39.4158C38.5514 38.1212 37.5718 38.1212 36.5922 38.1212C36.3617 38.1818 36.4193 38.1212 36.5922 38.1212ZM36.765 37.5757H38.4362C38.0328 37.5757 37.5142 37.5757 37.0532 37.6363C36.9955 37.6363 36.8803 37.6363 36.765 37.5757C36.7074 37.6363 36.7074 37.5757 36.765 37.5757ZM37.1108 29.8181C36.5345 29.7575 36.1888 31.0303 35.6701 31.5151C36.1888 31.0303 36.5922 29.9394 37.1108 29.8181ZM37.2837 29.5151C36.9955 29.2121 36.8227 28.8484 36.5922 28.5454C36.6498 28.5454 36.9955 29.0303 37.2837 29.5151ZM35.2668 32.9091L35.2091 32.9697C35.0939 32.7272 35.0363 32.303 35.0939 32C35.0939 31.8787 35.2091 31.7575 35.382 31.6969C35.2668 31.8181 35.1515 31.8787 35.1515 32C35.0939 32.2424 35.1515 32.6666 35.2668 32.9091ZM36.7074 36.9697C36.7074 36.9091 36.6498 36.8484 36.5345 36.7878C36.3617 36.606 36.1312 36.4242 36.2464 36.1818C36.3617 35.8181 36.8803 35.3939 37.1684 35.1515C36.765 35.5757 36.2464 36.0606 36.4193 36.4848C36.5922 36.7272 36.5922 36.7272 36.7074 36.9697ZM35.4396 31.9394C35.4973 31.9394 35.5549 32.0606 35.5549 32.1818C35.5549 32.2424 35.4973 32.303 35.4973 32.303V32.2424C35.4973 32.1212 35.4973 32 35.382 32C35.3244 32 35.3244 32 35.2668 32.0606C35.3244 32 35.382 31.9394 35.4396 31.9394ZM35.9583 38.9697C35.9006 39.0303 35.9006 39.0909 35.9006 39.1515C35.9006 39.2727 35.9583 39.3939 36.0735 39.5151C36.0159 39.5151 35.9583 39.5151 35.9006 39.5757C35.7854 39.6969 35.7854 40.0606 35.9583 40.1212H36.1888C36.1311 40.1212 36.1311 40.1212 36.0735 40.1212C36.1888 40.0606 36.304 39.8788 36.3617 39.7575H36.0159C35.9583 39.7575 35.9583 39.6969 35.9583 39.6363H36.0735H36.2464H36.3617C36.3617 39.5757 36.3617 39.5757 36.3617 39.5757C36.3617 39.5151 36.3617 39.3939 36.304 39.3333H36.0735C35.9583 39.3333 35.9583 39.1515 36.0735 39.1515C36.0735 39.0303 36.0159 38.9697 35.9583 38.9697ZM37.1108 29.6363C36.304 29.6969 36.0735 30.9697 35.2668 31.6363C35.0363 31.8181 34.9786 31.7575 34.9786 32.0606C34.921 32.4848 34.9786 32.8484 35.1515 33.0303L35.843 32.6666L35.9583 32.7272C35.843 32.9697 35.5549 33.0909 35.6125 33.5151H36.2464C36.4193 33.5151 36.4193 33.4545 36.4769 33.3333C36.6498 33.0909 36.765 32.9091 36.8803 32.7878C36.9379 32.7272 36.9955 32.7272 37.0532 32.6666C36.9955 32.6666 36.9379 32.606 36.9379 32.606C38.0904 32.9091 38.3209 31.8181 38.2633 31.4545C38.3785 32.1212 38.148 32.4242 37.8599 32.606C38.8972 32.8484 37.9175 34.0606 37.1108 34.8484C36.4193 35.4545 35.382 36.1212 36.4193 37.0303C36.5922 37.1515 36.7074 37.3333 36.765 37.5757H36.5922C36.5345 37.5757 36.5345 37.6363 36.5345 37.6363C36.5345 37.6969 36.5345 37.6969 36.5922 37.6969C36.6498 37.6969 36.7074 37.6969 36.7074 37.7575C36.7074 37.8788 36.5922 38 36.4193 38C36.3617 38 36.304 38.0606 36.304 38.1212C36.304 38.1818 36.3617 38.2424 36.4193 38.2424C36.4769 38.2424 36.4769 38.2424 36.5345 38.2424C36.6498 38.2424 36.6498 38.303 36.6498 38.3636C36.6498 38.4848 36.4769 38.5454 36.304 38.6666C36.4769 38.7878 36.5922 38.9091 36.6498 39.0303H40.1073C39.3582 39.0303 37.9752 39.1515 36.7074 39.2121C36.7074 39.2727 36.7074 39.3333 36.7074 39.4545C36.7074 39.5151 36.7074 39.5151 36.7074 39.5757L39.7039 39.6363C38.7243 39.6969 37.687 39.6969 36.7074 39.6969C36.7074 39.7575 36.6498 39.8181 36.6498 39.9394C36.7074 40 36.7074 40.0606 36.7074 40.1212C38.148 40.1212 39.531 40.1212 40.9717 40.1212C41.1446 40.1212 41.1446 39.6969 41.0293 39.5757C41.0293 39.5757 40.9141 39.5151 40.8564 39.5151C40.9717 39.4545 41.0869 39.2727 41.0293 39.1515C41.0293 38.7878 40.2226 38.7272 40.2226 38.4242C40.2226 38.3636 40.2226 38.3636 40.3378 38.303C40.3954 38.303 40.3954 38.303 40.4531 38.303C40.5107 38.303 40.5683 38.2424 40.5683 38.1818C40.5683 38.1212 40.5107 38.0606 40.4531 38.0606C40.2226 38.0606 40.1649 37.9394 40.1649 37.8181C40.1649 37.7575 40.2226 37.7575 40.2802 37.7575C40.3378 37.7575 40.3378 37.6969 40.3378 37.6969C40.3378 37.6363 40.2802 37.6363 40.2802 37.6363H40.1649C40.2226 37.5151 40.3378 37.3939 40.7988 37.4545C40.8564 37.3333 40.9141 37.1515 40.9717 37.0303C40.5107 37.0909 40.1649 37.1515 39.9921 37.0909C40.3954 36.9697 40.7988 36.7272 41.1446 36.4848C41.2598 36.1212 41.3174 35.7575 41.3751 35.3939C40.8564 35.6969 40.2226 35.8788 39.6463 35.8788C40.3954 35.4545 41.1446 34.7272 41.4903 34C41.4903 33.5757 41.4903 33.1515 41.4327 32.7878C41.0293 33.3939 40.2226 34.0606 39.9344 34.1212C40.6259 33.5757 41.0869 32.4848 41.1446 31.5757C41.0293 31.3333 40.9141 31.0303 40.7988 30.8484C40.6836 31.4545 40.3378 32.1212 40.1649 32.303C40.3378 31.7575 40.5107 30.8484 40.2802 30.1212C40.1073 29.9394 39.9921 29.8181 39.8192 29.6969C39.8192 30.303 39.7039 31.0909 39.4734 31.2121C39.5887 30.606 39.531 29.9394 39.3005 29.3939C38.8972 29.2121 38.4362 29.0909 37.9175 29.0909C37.5142 28.7272 36.9379 28.4848 36.5345 28.5454C36.3617 28.5454 36.4193 28.606 36.4769 28.7272C36.7074 28.9091 36.9379 29.2727 37.1108 29.6363Z" fill="#FEFEFE"/>
<path fill-rule="evenodd" clip-rule="evenodd" d="M12.6201 13.515C12.7354 13.515 12.793 13.6362 12.793 13.6968C12.793 13.7574 12.7354 13.9393 12.6201 13.9393C12.5049 13.9393 12.4473 13.818 12.4473 13.7574C12.4473 13.6968 12.5049 13.515 12.6201 13.515Z" fill="#FEFEFE"/>
<path fill-rule="evenodd" clip-rule="evenodd" d="M14.2336 13.3334L13.4269 13.6364L12.6778 13.8788L12.6201 13.7576L12.5625 13.5758L13.4269 13.4546L14.2336 13.3334Z" fill="#FEFEFE"/>
<path fill-rule="evenodd" clip-rule="evenodd" d="M12.2746 9.51511C12.3322 9.63632 12.2746 9.75753 12.1594 9.75753C12.0441 9.81814 11.9289 9.75753 11.9289 9.63632C11.8712 9.51511 11.9289 9.39389 12.0441 9.39389C12.1594 9.33329 12.2746 9.39389 12.2746 9.51511Z" fill="#FEFEFE"/>
<path fill-rule="evenodd" clip-rule="evenodd" d="M12.966 11.0303L12.4473 10.3637L11.9863 9.63641L12.1016 9.5758L12.2168 9.45459L12.5626 10.2425L12.966 11.0303Z" fill="#FEFEFE"/>
<path fill-rule="evenodd" clip-rule="evenodd" d="M30.3098 9.51511C30.3674 9.63632 30.3098 9.75753 30.1945 9.75753C30.0793 9.81814 29.964 9.75753 29.964 9.63632C29.9064 9.51511 29.964 9.39389 30.0793 9.39389C30.1945 9.33329 30.3098 9.39389 30.3098 9.51511Z" fill="#FEFEFE"/>
<path fill-rule="evenodd" clip-rule="evenodd" d="M31.0031 11.0303L30.4844 10.3637L30.0234 9.63641L30.1387 9.5758L30.2539 9.45459L30.5997 10.2425L31.0031 11.0303Z" fill="#FEFEFE"/>
<path fill-rule="evenodd" clip-rule="evenodd" d="M36.8223 13.9393C36.707 13.9393 36.5918 13.8787 36.5918 13.7574C36.5918 13.6362 36.6494 13.515 36.7647 13.515C36.8799 13.515 36.9952 13.5756 36.9952 13.6968C36.9952 13.818 36.9376 13.9393 36.8223 13.9393Z" fill="#FEFEFE"/>
<path fill-rule="evenodd" clip-rule="evenodd" d="M35.3242 14.5454L36.0157 14.0605L36.7072 13.5757L36.7648 13.7575L36.8225 13.8787L36.0733 14.1817L35.3242 14.5454Z" fill="#FEFEFE"/>
<path fill-rule="evenodd" clip-rule="evenodd" d="M13.8294 26.7879L18.6124 26.8485C17.2293 26.9091 16.1921 26.9698 13.7718 27.0304C13.5413 26.9698 13.5989 26.7273 13.8294 26.7879ZM12.8498 35.7576H16.9412C15.8463 35.7576 14.1176 35.8182 12.9651 35.8788C12.6769 35.8788 12.6769 35.7576 12.8498 35.7576ZM13.5413 25.5758H17.8056C16.6531 25.5758 14.7515 25.6364 13.5413 25.697C13.2532 25.697 13.3684 25.5758 13.5413 25.5758ZM12.9074 36.1213H15.9616C15.2125 36.1213 14.2905 36.1819 13.4837 36.1819C13.3108 36.1819 13.1379 36.1819 12.9651 36.1819C12.7922 36.1819 12.7922 36.1213 12.9074 36.1213ZM14.4057 27.8182H16.8836C16.2497 27.8182 15.5006 27.8182 14.8667 27.8788C14.7515 27.8788 14.5786 27.8788 14.4057 27.8182C14.3481 27.8788 14.3481 27.8182 14.4057 27.8182ZM13.4261 22.2425C13.7718 23.091 13.9447 24.4243 14.0023 25.394H13.8294C13.7718 24.4243 13.6566 23.1516 13.2532 22.2425H13.4261ZM13.7718 22.1819C13.8294 22.3637 13.8294 22.5455 13.8871 22.6667C13.8871 22.7879 13.9447 22.8485 14.06 22.9091C14.1176 22.9698 14.2328 22.9698 14.3481 22.9091C14.2905 22.9091 14.2328 22.9698 14.1752 22.9698C14.06 22.9698 14.0023 22.9698 13.9447 22.9091C13.8871 22.8485 13.8871 22.7879 13.8294 22.6667C13.8294 22.5455 13.8294 22.4243 13.7718 22.1819ZM15.904 22.1819C15.904 22.3637 15.904 22.6061 15.904 22.7879C15.904 22.8485 15.9616 22.9092 16.0192 22.9698C16.0768 23.0304 16.1921 23.0304 16.3073 22.9698C16.2497 23.0304 16.1345 23.0304 16.0192 23.0304C15.904 22.9698 15.8463 22.9698 15.8463 22.8485C15.8463 22.6061 15.8463 22.3637 15.904 22.1819ZM14.9243 28.4243C15.443 30.1819 15.1548 32.0001 14.7515 33.2122C14.521 33.9395 14.1752 34.6667 13.6566 35.394C14.06 35.4546 14.4057 35.394 14.6938 35.394C15.1548 34.0607 15.7311 30.7879 14.9243 28.4243ZM17.1717 40.9091C18.4971 40.9091 19.8225 40.9091 21.2055 40.9091C21.2631 40.9091 21.2631 40.9091 21.3208 40.8485C20.1106 40.8485 18.9581 40.9091 17.748 40.9091C17.5175 40.9091 17.5175 40.7273 17.6327 40.6061C17.6904 40.5455 17.8632 40.5455 17.9209 40.5455L21.436 40.6061C21.4936 40.3637 21.436 40.0607 21.2631 39.9395C21.2055 39.8788 21.0903 39.8788 20.9174 39.8182C21.0326 39.7576 21.0903 39.697 21.1479 39.6364C20.053 39.697 18.9581 39.697 17.9209 39.7576C17.6327 39.697 17.5175 39.1516 18.0937 39.1516H21.3208C21.3208 38.4849 19.7649 38.3031 19.7649 37.7576C19.7649 37.6364 19.7649 37.5758 19.9377 37.5152C19.9954 37.5152 20.1106 37.5152 20.1682 37.4546C20.2835 37.4546 20.3411 37.3334 20.3411 37.2122C20.3411 37.091 20.2259 37.0304 20.1106 37.0304C19.8225 36.9698 19.6496 36.8485 19.592 36.6667H19.4191C18.6124 36.7273 18.7276 36.4849 19.3039 36.5455H19.592V36.4849C19.592 36.3637 19.6496 36.3637 19.7649 36.3637C19.8225 36.3637 19.8801 36.3031 19.8801 36.1819C19.8801 36.1213 19.8225 36.0607 19.7649 36.0607C19.7072 36.0607 19.7649 36.0001 19.7649 36.0001C19.9954 35.9395 19.9954 35.7576 19.8801 35.6364C19.7072 35.4546 19.5344 35.2122 19.3615 34.9698C19.3039 35.0304 19.3039 35.0304 19.3039 35.091C19.3039 35.2122 19.3615 35.3334 19.4767 35.3334C19.6496 35.3334 19.7072 35.394 19.7072 35.5152C19.7072 35.8788 19.4767 36.1819 18.9005 36.2425C18.7276 36.2425 18.6124 36.3637 18.6124 36.4849C18.6124 36.6667 18.7276 36.8485 18.8429 36.8485C18.9581 36.8485 19.0734 36.9091 19.1886 36.9091C19.4767 36.9698 19.4767 37.0304 19.4767 37.2122C19.4767 37.8788 17.6904 38.1213 17.3446 38.8485H19.5344C18.9581 38.8485 18.209 38.9092 17.3446 38.9698C17.3446 39.0304 17.3446 39.091 17.3446 39.1516C17.3446 39.3334 17.4022 39.6364 17.6327 39.8788H18.8429C18.4395 39.8788 18.0361 39.9395 17.6904 39.9395C17.748 40.0001 17.8056 40.0607 17.9209 40.1213C17.6904 40.1819 17.5175 40.1819 17.4599 40.2425C17.287 40.4849 17.2293 40.6667 17.1717 40.9091ZM12.6769 35.6364C12.5617 35.7576 12.5617 35.9395 12.7922 36.0001C12.7922 36.0001 12.8498 36.0607 12.7922 36.0607C12.7346 36.0607 12.6769 36.1213 12.6769 36.1819C12.6769 36.2425 12.7346 36.3637 12.7922 36.3637C12.9074 36.3637 12.9651 36.4243 12.9651 36.4849C12.9651 36.7273 12.7922 36.9698 12.3888 37.0304C12.2736 37.0304 12.2159 37.091 12.1583 37.2122C12.1583 37.3334 12.2159 37.4546 12.3312 37.4546C12.3888 37.4546 12.5041 37.4546 12.5617 37.5152C12.7346 37.5758 12.7346 37.5758 12.7346 37.7576C12.7346 38.3031 11.1787 38.4849 11.1787 39.1516C11.1787 39.3334 11.2939 39.6364 11.5821 39.8182C11.4092 39.8182 11.2939 39.8788 11.2363 39.9395C10.9482 40.1819 11.0058 40.9091 11.2939 40.9698C12.9074 40.9698 14.5786 40.9698 16.1921 40.9698C16.1921 40.9091 16.1921 40.8485 16.1921 40.7879C16.2497 40.5455 16.3073 40.3637 16.4226 40.1819C14.7515 40.2425 13.0803 40.2425 11.4092 40.2425C11.2363 40.2425 11.2939 40.1213 11.3516 40.0607C11.4092 40.0001 11.5244 40.0001 11.5821 40.0001H11.9278L16.5378 40.0607C16.4226 39.8182 16.4226 39.5758 16.4226 39.3334C16.4226 39.2728 16.4226 39.2728 16.4226 39.2122C14.9243 39.2728 13.1956 39.394 11.6397 39.394C11.4092 39.3334 11.3516 38.9698 11.7549 38.9698L16.4226 39.0304C16.5378 38.1819 17.287 37.8182 17.9785 37.4546C17.9209 37.394 17.8632 37.3334 17.8632 37.2122C16.1921 37.2728 14.4057 37.2122 12.7346 37.3334C12.1583 37.394 12.2736 37.2122 12.6769 37.2122H17.9209C17.8056 37.0304 17.8056 36.7879 17.8056 36.5455C17.8632 36.2425 17.9785 36.0001 18.209 35.8182C18.3242 35.7576 18.3819 35.697 18.4971 35.6364C18.4395 35.394 18.4395 35.2728 18.4395 35.1516C18.3819 35.091 18.3819 35.0304 18.3819 34.9091C18.3242 34.7879 18.3242 34.6061 18.3819 34.4243C18.4395 34.1819 18.4971 33.9395 18.67 33.7576C17.748 31.8182 17.4022 29.2728 18.3242 27.9395C18.3242 27.9395 18.3819 27.8788 18.3242 27.8182C18.3242 27.7576 18.2666 27.697 18.2666 27.697C18.209 27.6364 18.209 27.5758 18.3242 27.5152C18.4395 27.4546 18.67 27.394 18.8429 27.394C19.3615 27.394 19.4191 26.7879 19.0157 26.5455C19.0157 26.3031 19.0157 26.0607 19.0157 25.8182C19.4191 25.8182 19.592 25.394 19.0157 25.3334C19.0157 25.2728 19.0157 25.1516 19.0157 25.091C19.0157 24.1213 19.3615 22.5455 19.7072 21.9395H18.7276C18.67 22.1213 18.6124 22.3637 18.5547 22.5455C18.5547 22.6667 18.4971 22.7879 18.3819 22.7879H18.0937C18.0361 22.7879 17.9785 22.6667 17.9785 22.5455V21.9395H16.5378V22.5455C16.5378 22.6667 16.4802 22.7879 16.4226 22.7879C16.3073 22.7879 16.1921 22.7879 16.0768 22.7879C16.0192 22.7879 15.9616 22.6667 15.9616 22.5455V21.9395H14.521V22.5455C14.521 22.6667 14.4633 22.7879 14.4057 22.7879H14.1176C14.0023 22.7879 14.0023 22.6667 13.9447 22.5455C13.8871 22.3031 13.8294 22.1213 13.7718 21.9395H12.7922C13.1379 22.5455 13.4261 24.0607 13.4837 25.0304C13.4837 25.1516 13.4837 25.2122 13.4837 25.3334C12.9074 25.394 13.0227 25.8788 13.4837 25.8182C13.4837 26.0607 13.4837 26.3031 13.4837 26.5455C13.0803 26.7273 13.1379 27.394 13.6566 27.394C13.7718 27.394 14.0023 27.394 14.1752 27.5152C14.2328 27.5758 14.2905 27.6364 14.2328 27.697C14.1752 27.697 14.1752 27.7576 14.1752 27.8182C14.1752 27.8788 14.1752 27.8788 14.1752 27.9395C15.5582 29.8182 14.3481 34.4849 12.6769 35.6364Z" fill="#FEFEFE"/>
<path fill-rule="evenodd" clip-rule="evenodd" d="M31.7517 23.4546C30.3687 24.6667 29.389 26.4849 30.6568 27.5152C29.85 26.0607 30.772 24.5455 31.7517 23.4546ZM30.1382 30.1819L34.0567 30.2425C32.9042 30.3031 32.0398 30.3031 30.0229 30.3031C29.9077 30.2425 29.7924 30.1819 30.1382 30.1819ZM30.9449 28.9698H32.9618C32.2703 28.9698 31.4635 29.0304 30.772 29.0304C30.772 29.0304 30.772 28.9698 30.9449 28.9698ZM31.0602 28.3031H32.6737C31.9245 28.3031 31.9245 28.3637 31.1178 28.3637C30.9449 28.4243 30.9449 28.3031 31.0602 28.3031ZM30.8873 31.2122H32.0398C31.694 31.2728 31.4059 31.2122 30.9449 31.2728C30.772 31.2728 30.8297 31.2122 30.8873 31.2122ZM30.772 30.8485H31.8669C31.0602 30.8485 31.6364 30.8485 30.772 30.8485C30.5992 30.9092 30.6568 30.8485 30.772 30.8485ZM31.9822 25.4546C31.8669 25.8182 31.9822 26.0607 32.155 26.1213C31.4059 25.8788 32.0398 24.9091 32.5584 23.697L31.9822 25.4546ZM31.8093 22.7273C31.694 22.4849 31.8093 22.1819 32.0398 22.0607H32.0974C31.8669 22.1819 31.7517 22.4849 31.8093 22.7273ZM29.85 36.3031C29.6772 36.4243 29.4466 36.5455 29.2161 36.6667C29.1009 36.7273 29.1585 36.9092 29.3314 36.9698C29.3314 36.9698 29.389 36.9698 29.3314 37.0304C29.2738 37.0304 29.2161 37.091 29.2161 37.1516C29.2161 37.2122 29.2738 37.2728 29.3314 37.2728C29.389 37.2728 29.5043 37.2728 29.5043 37.394C29.5043 37.5758 29.3314 37.7576 29.0433 37.8182C28.9856 37.8182 28.8704 37.8789 28.8704 38.0001C28.8704 38.1213 28.928 38.1819 29.0433 38.1819C29.1009 38.1819 29.1585 38.1819 29.2161 38.2425C29.389 38.3031 29.389 38.3031 29.389 38.4243C29.389 38.7879 28.5823 38.9092 28.2365 39.2728H29.1585C28.8704 39.2728 28.5246 39.2728 28.1789 39.3334C28.1213 39.394 28.0636 39.5152 28.0636 39.6364C28.0636 39.8182 28.1789 40.0607 28.3518 40.1819C28.2365 40.1819 28.1213 40.2425 28.0636 40.2425C27.9484 40.3637 27.8908 40.5455 27.9484 40.7879H28.0636H27.9484C27.9484 40.9698 28.0636 41.091 28.1213 41.091C29.3314 41.091 30.5992 41.091 31.8093 41.091C31.8093 40.8486 31.694 40.6667 31.5788 40.5455L31.5212 40.4849C30.4263 40.4849 29.3314 40.5455 28.2941 40.5455C28.1789 40.5455 28.1789 40.4243 28.2365 40.3637C28.2941 40.3031 28.3518 40.3031 28.4094 40.3031H28.6975L31.233 40.3637C31.4635 40.1819 31.6364 39.9395 31.694 39.697C30.5992 39.7576 29.5043 39.8182 28.4094 39.8182C28.2365 39.7576 28.1789 39.4546 28.5246 39.4546H31.694C31.694 39.394 31.694 39.394 31.694 39.3334C31.694 38.6667 30.7144 38.3637 30.0229 38.0001C29.7924 38.0001 29.5043 38.0001 29.2738 38.0607C28.8128 38.0607 28.8704 37.9395 29.2161 38.0001H29.9653C29.6772 37.8182 29.5043 37.6364 29.5043 37.4546C29.5043 37.3334 29.5043 37.2728 29.5619 37.2122C29.5043 37.2122 29.4466 37.2122 29.4466 37.2122C29.3314 37.2122 29.3314 37.1516 29.4466 37.1516H29.7348H29.7924C29.9077 37.1516 30.0229 37.091 30.1382 37.091C30.2534 37.091 30.311 37.0304 30.3687 36.9092C30.0229 36.9092 29.7348 36.9092 29.4466 36.9092C29.2161 36.9092 29.2738 36.8485 29.389 36.8485H30.3687C30.3687 36.7879 30.3687 36.7273 30.3687 36.7273C30.3687 36.6667 30.3687 36.6061 30.311 36.6061H30.2534L30.311 36.5455C30.1958 36.3637 30.1382 36.3637 30.0805 36.3637C29.9653 36.3031 29.9077 36.3031 29.85 36.3031ZM30.8873 31.4546C31.1754 31.5152 31.1754 31.7576 31.1754 31.8788C31.2907 33.394 31.1178 34.6667 30.5415 35.5152C30.5992 35.5758 30.6568 35.5758 30.772 35.6364C31.233 34.8485 31.4635 33.9395 31.4635 32.0001C31.5788 33.697 31.4635 35.1516 31.1754 36.1819C31.233 36.2425 31.233 36.3637 31.233 36.4243C31.233 36.5455 31.233 36.6061 31.233 36.7273H32.7313C32.3279 36.7273 31.8093 36.7273 31.233 36.7879C31.233 36.8485 31.233 36.9698 31.1754 37.0304H31.9245C31.694 37.0304 31.4635 37.0304 31.1754 37.0304C31.1178 37.1516 31.0602 37.2728 31.0025 37.3334V37.394C31.2907 37.5152 31.5788 37.697 31.8669 37.8789H33.7686C33.1347 37.8789 32.5584 37.8789 31.9245 37.8789C32.3279 38.1819 32.616 38.6061 32.616 39.2122C32.616 39.2728 32.616 39.2728 32.616 39.3334H34.9211C34.3448 39.3334 33.5381 39.394 32.5584 39.4546C32.5584 39.6364 32.5008 39.7576 32.4432 39.9395C32.5008 40.0001 32.5008 40.0607 32.5584 40.1819H34.2872C33.7109 40.1819 33.1347 40.2425 32.5584 40.2425C32.616 40.3637 32.6737 40.4849 32.6737 40.6667C32.6737 40.7273 32.6737 40.8486 32.6737 40.9092C33.8262 40.9092 35.0363 40.9092 36.1888 40.9092C36.4193 40.8486 36.477 40.3031 36.2465 40.0607C36.1888 40.0001 36.1312 40.0001 35.9583 40.0001C36.1888 39.8789 36.3041 39.6364 36.2465 39.4546C36.2465 38.9092 34.9787 38.7273 34.9787 38.3031C34.9787 38.1819 34.9787 38.1819 35.1516 38.1213C35.2092 38.1213 35.2668 38.1213 35.3244 38.0607C35.4397 38.0607 35.4973 37.9395 35.4973 37.8789C35.4973 37.8182 35.3821 37.697 35.3244 37.697C34.9787 37.6364 34.8634 37.4546 34.8634 37.2728C34.8634 37.2122 34.9211 37.1516 35.0363 37.1516C35.0939 37.1516 35.1516 37.091 35.1516 37.0304C35.1516 36.9698 35.0939 36.9092 35.0363 36.9092C34.9787 36.9092 35.0363 36.8485 35.0363 36.8485C35.2092 36.7879 35.2668 36.6667 35.1516 36.5455C34.6906 36.3031 34.2296 36.0607 33.8838 35.5758C33.3076 34.7273 33.0771 33.3334 33.1923 31.7576C33.1923 31.6364 33.1923 31.394 33.4804 31.3334C33.5957 31.3334 33.6533 31.2122 33.6533 31.1516C33.6533 31.091 33.6533 31.0304 33.5957 31.0304C33.5381 31.0304 33.5381 30.9698 33.5957 30.9698C33.6533 30.9698 33.6533 30.9698 33.7109 30.9698C33.7686 30.9698 33.8262 30.9092 33.8262 30.8485C33.8262 30.7879 33.8262 30.7879 33.7686 30.7273C33.7109 30.6667 33.7686 30.6061 33.8262 30.6061C33.9414 30.5455 34.1143 30.5455 34.2296 30.5455C34.4601 30.5455 34.6329 30.4849 34.5753 30.1213C34.4601 29.697 33.4228 29.8182 33.4228 29.3334C33.4228 29.2728 33.4804 29.2728 33.5381 29.2122C33.5957 29.2122 33.7109 29.1516 33.7109 28.9698C33.7109 28.6667 33.3076 28.9091 33.3076 28.5455C33.3076 28.5455 33.3076 28.4849 33.3652 28.4849C33.6533 28.4849 33.6533 28.2425 33.4804 28.1819H33.4228C35.8431 27.3334 34.1719 24.4849 33.1923 23.5758C33.1347 23.5152 33.1347 23.5758 33.1347 23.5758C32.9618 24.2425 32.8466 24.9091 32.6737 25.5758C32.5584 26.0607 31.8093 26.0607 32.0398 25.394L32.7313 23.3334C32.7313 23.2728 32.7889 23.2122 32.7313 23.1516C32.6737 23.091 32.5584 23.0304 32.4432 22.9698C32.616 22.8485 32.7313 22.6667 32.7313 22.4243C32.7313 22.0607 32.5008 21.8182 32.155 21.8182C31.8093 21.8182 31.5788 22.0607 31.5788 22.4243C31.5788 22.6667 31.694 22.8485 31.8669 22.9698C29.3314 24.8485 28.9856 27.091 30.7144 28.0001C30.772 28.0001 30.8873 28.0607 30.8873 28.1213H30.8297C30.5992 28.1819 30.6568 28.4243 30.9449 28.4243C31.0025 28.4243 31.0025 28.4849 31.0025 28.4849C30.9449 28.8485 30.5992 28.6061 30.5992 28.9092C30.5992 29.0304 30.6568 29.091 30.772 29.1516C30.8297 29.1516 30.8873 29.2122 30.8873 29.2728C30.8873 29.7576 29.85 29.6364 29.7348 30.0607C29.7348 30.4243 29.9077 30.4243 30.0805 30.4849C30.1958 30.4849 30.3687 30.4849 30.4839 30.5455C30.5415 30.6061 30.5415 30.6061 30.5415 30.6667C30.5415 30.8485 30.5415 30.8485 30.5415 30.9092C30.5415 30.9698 30.5992 31.0304 30.6568 31.0304C30.7144 31.0304 30.7144 31.0304 30.772 31.0304C30.8297 31.0304 30.8297 31.091 30.772 31.091C30.7144 31.1516 30.7144 31.1516 30.7144 31.2122C30.7144 31.3334 30.772 31.4546 30.8873 31.4546Z" fill="#FEFEFE"/>
<path fill-rule="evenodd" clip-rule="evenodd" d="M23.3964 13.394H25.1252C23.9726 13.394 24.0879 13.394 23.5693 13.4546C23.5116 13.4546 23.454 13.4546 23.3964 13.4546C23.2811 13.4546 23.2811 13.394 23.3964 13.394ZM25.4133 10.7273C25.6438 10.6667 25.9895 10.5455 26.1048 10.6061C25.9319 10.6061 25.6438 10.6667 25.4133 10.7273ZM24.1455 8.84856C24.0879 8.72734 24.2031 8.42431 24.4337 8.42431C24.2608 8.48492 24.1455 8.66674 24.1455 8.84856ZM23.7421 10.4849C23.6845 10.3637 23.5693 10.0607 23.5116 9.81825C23.454 9.69704 23.454 9.57583 23.5116 9.45462C23.5693 9.39401 23.6269 9.3334 23.7421 9.2728C24.1455 9.15159 24.6642 9.15159 25.1252 9.21219C24.4913 9.15159 23.9726 9.2728 23.7421 9.39401C23.454 9.63643 23.6845 10.3031 23.7421 10.4849ZM22.6473 11.6364C22.5896 11.394 22.5896 11.0304 22.6473 10.8486C22.7049 10.6667 22.8201 10.6061 22.993 10.6061C23.1659 10.6061 23.3964 10.6667 23.5693 10.7273C23.2235 10.6667 22.8778 10.6061 22.7625 10.9698C22.6473 11.1516 22.6473 11.394 22.6473 11.6364ZM23.7421 12.0001C23.6845 12.1819 23.5693 12.4243 23.5116 12.5455C23.454 12.6667 23.454 12.7879 23.454 12.9092C23.454 13.0304 23.5693 13.091 23.6845 13.1516C23.454 12.9698 23.5116 12.7273 23.7421 12.0001ZM22.4744 20.0001H25.298C23.9726 20.0607 23.9726 20.0607 22.5896 20.1213C22.3015 20.1819 22.2439 19.9395 22.4744 20.0001ZM22.3591 21.091H25.8743C24.6642 21.1516 23.2811 21.2122 22.1286 21.2122C21.9558 21.2122 22.0134 21.091 22.3591 21.091ZM20.8609 23.1516L27.6607 23.2728C25.6438 23.3334 24.1455 23.3334 20.7456 23.4546C20.4575 23.3334 20.3999 23.1516 20.8609 23.1516ZM21.9558 24.3637H23.8574C22.532 24.3637 23.454 24.3637 22.0134 24.3637C21.7253 24.4243 21.7829 24.3637 21.9558 24.3637ZM22.2439 24.9698H24.2608C23.6269 25.0304 23.1083 25.0304 22.4168 25.1516C22.0134 25.1516 22.071 24.9698 22.2439 24.9698ZM23.1083 26.3637C23.1083 30.788 22.4168 32.1819 21.0914 34.0607C21.6676 34.1213 22.1286 34.0607 22.5896 34.0607C23.1083 32.3031 23.3388 29.5152 23.1083 26.3637ZM19.5931 34.5455H25.3557C23.7998 34.5455 21.3219 34.6667 19.6507 34.6667C19.305 34.7273 19.3626 34.5455 19.5931 34.5455ZM19.6507 35.0304H23.9726C22.8778 35.0304 21.61 35.091 20.3999 35.091C20.1694 35.091 19.9389 35.091 19.6507 35.091C19.4779 35.1516 19.4779 35.0304 19.6507 35.0304ZM19.3626 36.5455H27.142C24.6065 36.6061 21.9558 36.5455 19.4779 36.7273C18.6711 36.7273 18.7864 36.4849 19.3626 36.5455ZM18.0948 39.091L29.1589 39.1516C26.7963 39.2122 21.9558 39.5758 17.922 39.6364C17.6338 39.6364 17.5186 39.091 18.0948 39.091ZM17.922 40.4849H18.383L28.1217 40.6061C24.6642 40.7273 21.149 40.788 17.6915 40.8486C17.461 40.8486 17.461 40.6667 17.5762 40.5455C17.6338 40.4849 17.8067 40.4849 17.922 40.4849ZM22.993 14.0001C22.3015 14.0607 22.1286 14.1819 21.7253 14.3637C21.4371 14.4849 21.3795 14.7273 21.3795 14.9092C21.6676 16.2425 22.3015 18.0607 22.6473 19.1516C22.4744 18.3637 21.7829 15.9395 21.8981 14.7879V14.7273C23.0506 14.7273 25.298 14.6667 26.3353 14.6667H21.9558C22.1286 14.3031 22.532 14.1819 22.993 14.0001ZM22.3591 19.8183C22.0134 19.8183 22.0134 20.3031 22.4168 20.3637C22.4744 20.3637 22.5896 20.4243 22.5896 20.4849C22.532 21.091 21.8981 20.7273 21.8405 21.2122C21.8405 21.4546 21.9558 21.5152 22.1286 21.5758C22.2439 21.6364 22.3015 21.6364 22.3015 21.7576C22.3015 22.6061 20.4575 22.4243 20.3422 23.1516C20.2846 23.7576 20.5727 23.8183 20.9761 23.8183C21.2066 23.8183 21.4948 23.8789 21.6676 23.9395C21.7829 24.0001 21.7829 24.0607 21.7253 24.1819C21.6676 24.2425 21.61 24.3031 21.61 24.3637C21.61 24.4849 21.6676 24.6061 21.7829 24.6061C21.8405 24.6061 21.8981 24.6061 22.0134 24.6061C22.071 24.6061 22.071 24.6667 22.0134 24.7273C22.0134 24.7273 22.0134 24.7273 21.9558 24.788C21.8981 24.9092 21.8981 24.9698 21.8981 25.091C21.8981 25.2728 22.0134 25.394 22.1863 25.4546C22.7049 25.5758 22.7049 25.9395 22.7049 26.1819C22.8778 28.9092 22.532 31.3334 21.4948 32.788C20.9185 33.5758 20.1694 34.0001 19.3626 34.4849C19.1897 34.6667 19.1897 34.9092 19.5355 34.9698C19.5931 34.9698 19.5931 35.0304 19.5355 35.0304C19.4202 35.0304 19.3626 35.091 19.3626 35.2122C19.3626 35.3334 19.4202 35.4546 19.5355 35.4546C19.7084 35.4546 19.766 35.5152 19.766 35.6364C19.766 36.0001 19.5355 36.3031 18.9592 36.3637C18.7864 36.3637 18.6711 36.4849 18.6711 36.6061C18.6711 36.788 18.7864 36.9698 18.9016 36.9698C19.0169 36.9698 19.1321 37.0304 19.2474 37.0304C19.5355 37.091 19.5355 37.1516 19.5355 37.3334C19.5355 38.0607 17.2881 38.3031 17.3457 39.2728C17.3457 39.5758 17.5186 40.0001 17.8643 40.2425C17.6338 40.3031 17.461 40.3031 17.4033 40.3637C17 40.6667 17.1152 41.697 17.5186 41.8183C22.1863 41.8789 26.8539 41.8789 31.5216 41.8183C31.925 41.7576 31.9826 40.7273 31.6368 40.3637C31.5792 40.3031 31.4063 40.2425 31.1758 40.2425C31.5792 40.0001 31.7521 39.5758 31.6945 39.2728C31.7521 38.3031 29.5047 38.0607 29.5047 37.3334C29.5047 37.1516 29.5047 37.091 29.7928 37.0304C29.9081 37.0304 30.0233 36.9698 30.1386 36.9698C30.3114 36.9698 30.4267 36.788 30.3691 36.6061C30.3691 36.4243 30.1962 36.3637 30.0809 36.3637C29.5047 36.3031 29.2742 36.0001 29.2742 35.6364C29.2742 35.5152 29.3894 35.4546 29.5047 35.4546C29.6199 35.4546 29.6776 35.3334 29.6776 35.2122C29.6776 35.091 29.5623 35.0304 29.5047 35.0304C29.4471 35.0304 29.5047 34.9698 29.5047 34.9698C29.7928 34.9092 29.8504 34.6061 29.6776 34.4849C28.8708 34.0001 28.1217 33.5758 27.5454 32.788C26.5082 31.3334 26.1624 28.9698 26.3353 26.1819C26.3353 25.9395 26.3353 25.5758 26.8539 25.4546C27.0268 25.4546 27.142 25.2728 27.142 25.091C27.142 25.0304 27.0844 24.9092 27.0268 24.8486C27.0268 24.8486 27.0268 24.8486 26.9692 24.788C26.9115 24.7273 26.9115 24.7273 26.9692 24.6667C27.0268 24.6667 27.0844 24.6667 27.1997 24.6667C27.3149 24.6667 27.3725 24.5455 27.3725 24.4243C27.3725 24.3637 27.3149 24.3031 27.2573 24.2425C27.1997 24.1213 27.1997 24.0607 27.3149 24.0001C27.4878 23.8789 27.8336 23.8789 28.0064 23.8789C28.4098 23.8789 28.6979 23.7576 28.6403 23.2122C28.4674 22.4849 26.681 22.6667 26.681 21.8183C26.681 21.697 26.7387 21.6364 26.8539 21.6364C27.0268 21.5758 27.142 21.5152 27.142 21.2728C27.142 20.7879 26.4505 21.1516 26.3929 20.5455C26.3929 20.4243 26.5082 20.4243 26.5658 20.4243C26.8539 20.3637 26.9692 19.8789 26.6234 19.8789H26.5082L28.1793 15.2122C28.4098 14.6061 28.0641 14.3031 27.7759 14.1819C27.0844 13.9395 26.4505 13.7576 25.759 13.697C25.8167 13.6364 25.8167 13.6364 25.8167 13.5152C25.8167 13.4546 25.7014 13.3334 25.5862 13.3334H25.4133C25.4709 13.3334 25.4709 13.3334 25.4709 13.2728C25.7014 13.1516 25.7014 12.9698 25.6438 12.788C25.5285 12.4849 25.4133 12.1819 25.298 11.8789C25.5285 11.9395 25.7014 12.0001 25.9319 12.0607C26.1624 12.1213 26.2777 12.0607 26.3929 11.9395C26.5658 11.7576 26.6234 11.1516 26.5082 10.8486C26.4505 10.6667 26.2777 10.4849 25.9319 10.5455C25.759 10.6061 25.5285 10.6667 25.3557 10.7273C25.4709 10.4243 25.5862 10.1819 25.7014 9.87886C25.8167 9.57583 25.7014 9.39401 25.4133 9.3334C25.1828 9.09098 24.8947 9.09098 24.7218 9.09098C24.837 9.03037 24.9523 8.90916 24.9523 8.72734C24.9523 8.54552 24.7794 8.36371 24.5489 8.3031C24.4913 8.3031 24.4337 8.3031 24.4337 8.3031C24.2031 8.3031 24.0303 8.48492 24.0303 8.72734C24.0303 8.90916 24.1455 9.03037 24.2608 9.09098C24.0303 9.09098 23.7998 9.09098 23.5693 9.21219C23.3388 9.3334 23.2235 9.51522 23.2811 9.75765C23.3964 10.0607 23.5116 10.3031 23.6269 10.6061C23.3964 10.5455 23.2235 10.4849 23.0506 10.4243C22.7049 10.3637 22.532 10.5455 22.4744 10.7273C22.3591 11.0304 22.4168 11.6364 22.5896 11.8183C22.7049 11.9395 22.8201 12.0001 23.0506 11.9395C23.2811 11.8789 23.454 11.8183 23.6845 11.7576C23.5693 12.0607 23.454 12.3637 23.3388 12.6667C23.2811 12.9092 23.2811 13.0304 23.5116 13.1516C23.5116 13.1516 23.5693 13.1516 23.5693 13.2122H23.3964C23.2235 13.2122 23.1659 13.3334 23.1659 13.394C23.1659 13.5152 23.2235 13.5758 23.2235 13.5758C22.532 13.6364 21.8405 13.8183 21.2066 14.0607C20.8609 14.1819 20.5727 14.4849 20.8032 15.091L22.4744 19.7576H22.3591V19.8183Z" fill="#FEFEFE"/>
<path fill-rule="evenodd" clip-rule="evenodd" d="M32.0391 8.66681L32.0967 8.6062L32.9034 12.485L32.7882 12.5456L32.0391 8.66681Z" fill="#FEFEFE"/>
<path d="M31.4455 8.79975L31.3359 8.8374L32.5172 12.6394L32.6268 12.6018L31.4455 8.79975Z" fill="#FEFEFE"/>
<path fill-rule="evenodd" clip-rule="evenodd" d="M30.6562 9.15143L30.7139 9.09082L32.3274 12.7272L32.2121 12.7878L30.6562 9.15143Z" fill="#FEFEFE"/>
<path fill-rule="evenodd" clip-rule="evenodd" d="M14.0039 8.66681L14.0615 8.6062L14.8683 12.485L14.753 12.5456L14.0039 8.66681Z" fill="#FEFEFE"/>
<path d="M13.4084 8.79829L13.2988 8.83594L14.4801 12.6379L14.5897 12.6003L13.4084 8.79829Z" fill="#FEFEFE"/>
<path fill-rule="evenodd" clip-rule="evenodd" d="M12.6211 9.15143L12.6787 9.09082L14.2922 12.7272L14.177 12.7878L12.6211 9.15143Z" fill="#FEFEFE"/>
</svg>
